<?xml version="1.0" encoding="UTF-8"?>
<svg width="220" height="100" version="1.1" viewBox="-1 -1 58.305 26.502" xmlns="http://www.w3.org/2000/svg" xmlns:xlink="http://www.w3.org/1999/xlink">
 <defs>
  <radialGradient id="radialGradient29" cx="58.591" cy="59.979" r="5.0323" gradientTransform="matrix(1 0 0 .070598 -.94457 60.262)" gradientUnits="userSpaceOnUse">
   <stop offset="0"/>
   <stop stop-opacity="0" offset="1"/>
  </radialGradient>
 </defs>
 <g transform="translate(-35.643 -23.936)">
  <g transform="translate(-.16042 4.0064)" stroke-width=".26458">
   <path transform="matrix(3.0112 -.80423 .13218 4.468 -69.282 -154.42)" d="m36.826 50.906q0.01073 0 0.01878 0.0027 0.0094 0.0027 0.02013 0.0067 0.01073 0.0027 0.02415 0.0054t0.03489 0.0027q0.06306 0 0.13954-0.01342 0.07782-0.01342 0.14625-0.03489 0.06843-0.02147 0.11674-0.0483 0.04965-0.02818 0.05636-0.0577 4e-3 -0.0161 4e-3 -0.02818 0-0.02281-0.02281-0.04294-0.02147-0.02147-0.05501-0.04025-0.03354-0.01879-0.07246-0.03489-0.03891-0.0161-0.07246-0.02952l-0.04562-0.01879q-0.03489-0.01342-0.06843-0.0322-0.03354-0.02013-0.06306-0.04562-0.02818-0.02549-0.05099-0.05904-0.02147-0.03489-0.0322-0.07917-0.0054-0.01879-0.0094-0.03757-0.0027-0.01878-0.0027-0.04025 0-0.03489 0.02281-0.07916 0.02415-0.04562 0.06306-0.0899 0.04025-0.04428 0.0899-0.08453 0.05099-0.04025 0.106-0.06709 0.04025-0.02818 0.07782-0.05099t0.07514-0.03891q0.03891-0.0161 0.07782-0.02549 0.04025-0.0094 0.08453-0.0094 0.04025 0 0.08722 4e-3 0.04696 4e-3 0.08587 0.01878 0.03891 0.01476 0.06441 0.04428 0.02683 0.02818 0.02683 0.07648 0 0.01476-4e-3 0.03891t-0.01342 0.0483q-0.0094 0.02415-0.02281 0.0416-0.01342 0.01744-0.0322 0.01744-0.03086 0-0.05099-0.01208t-0.03623-0.02549q-0.0161-0.01476-0.03355-0.02684-0.01744-0.01208-0.04294-0.01208-0.03086 0-0.07246 0.01208-0.04025 0.01073-0.08319 0.03086-0.04294 0.01878-0.08453 0.04428-0.04025 0.02549-0.0738 0.05233-0.0322 0.02684-0.05233 0.05367-0.02013 0.02549-0.02013 0.04696 0 0.02281 0.01476 0.03757t0.03757 0.02549q0.02952 0.0161 0.06709 0.0322 0.03891 0.0161 0.07782 0.0322t0.07514 0.0322q0.03757 0.0161 0.06441 0.02952 0.03623 0.01878 0.06441 0.03757 0.02952 0.01744 0.04965 0.03891t0.03086 0.0483q0.01073 0.02684 0.01073 0.06306 0 0.01744-0.0027 0.03489-0.0027 0.01744-8e-3 0.04025-4e-3 0.02013-0.01476 0.04696-0.0094 0.02684-0.02147 0.05367-0.01074 0.02549-0.02281 0.04696-0.01208 0.02013-0.02013 0.02683-0.05233 0.0483-0.12344 0.09124-0.07111 0.0416-0.14894 0.0738-0.07648 0.03086-0.1543 0.04965-0.07648 0.01879-0.14089 0.01879-0.0322 0-0.07111-0.01208-0.03891-0.01342-0.07246-0.03354-0.0322-0.02147-0.05501-0.0483-0.02147-0.02683-0.02147-0.05367 0-0.01342 0.0081-0.02952 0.0081-0.01744 0.02013-0.03086 0.01208-0.01476 0.02549-0.02415 0.01476-0.01073 0.02684-0.01073zm1.1177-0.27641q0.02013-0.08185 0.06172-0.17309 0.04294-0.09258 0.11137-0.18651 0.06843-0.09392 0.1637-0.18382 0.09661-0.0899 0.22274-0.16772 0.02013-0.01208 0.06172-0.02549 0.0416-0.01476 0.08587-0.01744 0.05233-0.05635 0.14089-0.05635 0.10466 0 0.17577 0.05367 0.07246 0.05233 0.11942 0.14357 0.01476 0.02952 0.02683 0.0577 0.01342 0.02818 0.02147 0.06038 0.0094 0.03086 0.01476 0.06709 0.0054 0.03623 0.0054 0.08185 0 0.106-0.03354 0.21603-0.03354 0.11003-0.09527 0.21468-0.06172 0.10466-0.15028 0.20127-0.08722 0.09527-0.19456 0.17175-0.07246 0.05233-0.16101 0.08051-0.08722 0.02952-0.1959 0.02952-0.10332 0-0.1798-0.02818-0.07514-0.02684-0.12613-0.07782-0.04965-0.05099-0.07514-0.1221-0.02415-0.07111-0.02415-0.15833 0-0.08453 0.02415-0.18114zm0.22274 0.01744q-0.0081 0.03086-0.01208 0.05904-0.0027 0.02684-0.0027 0.05233 0 0.04428 0.01073 0.08319 0.01208 0.03757 0.03757 0.06575 0.02549 0.02684 0.06306 0.04294 0.03891 0.01476 0.09392 0.01476 0.10198 0 0.18919-0.05099 0.08856-0.05233 0.15699-0.13015 0.06843-0.07782 0.11405-0.16638 0.04696-0.0899 0.06575-0.16504 0.01208-0.04696 0.02013-0.08856 0.0094-0.0416 0.0094-0.07648 0-0.03489-0.01342-0.06441-0.01208-0.03086-0.0322-0.06843-0.01208-0.02281-0.02415-0.04696-0.01208-0.02549-0.02147-0.04965-0.01073 0.01878-0.02281 0.03354-0.01208 0.01342-0.03623 0.02549-0.02415 0.01073-0.06575 0.02013t-0.10868 0.0161q-0.04428 0.01476-0.0899 0.04562t-0.0899 0.07246q-0.04294 0.0416-0.08319 0.0899-0.03891 0.0483-0.07111 0.09929-0.03086 0.04965-0.05501 0.09795-0.02281 0.0483-0.0322 0.08856zm1.4505-0.69772q0.0054-0.02147 0.01476-0.03623 0.01073-0.0161 0.02147-0.02549 0.01208-0.0094 0.02147-0.01342 0.0094-4e-3 0.01476-4e-3 0.01476 0 0.03489 4e-3 0.02013 0.0027 0.03891 0.0054 0.02147 4e-3 0.04159 0.0081 0.03489 0.0013 0.04965 0.02818 0.0161 0.02684 0.0161 0.06441 0 0.02952-0.0081 0.05501-0.04562 0.16772-0.08319 0.29251-0.03757 0.12344-0.06441 0.21066-0.02549 0.08722-0.04025 0.14223-0.01342 0.05501-0.01342 0.08319t0.0067 0.06306q8e-3 0.03489 0.02281 0.06575 0.01476 0.02952 0.03757 0.04965t0.05501 0.02013q0.05635 0 0.11405-0.03489 0.0577-0.03489 0.11003-0.08453 0.05233-0.05099 0.09392-0.10734 0.04294-0.0577 0.06977-0.10198l0.03489-0.06038q0.0322-0.05635 0.05904-0.12881 0.02818-0.0738 0.0483-0.1476 0.02147-0.0738 0.03623-0.1382 0.01476-0.06575 0.02281-0.10466l0.03489-0.17846q0.01073-0.05099 0.0322-0.06977 0.02281-0.02013 0.07514-0.02013 0.03355 0 0.06038 8e-3 0.02684 0.0067 0.04562 0.02549 0.01879 0.01879 0.02818 0.05099 0.0094 0.03086 0.0094 0.08051 0 0.0577-0.01879 0.14223-0.01744 0.08319-0.03891 0.16772-0.01208 0.04965-0.02549 0.106-0.01208 0.05501-0.02281 0.11137-0.0094 0.05501-0.0161 0.106-0.0054 0.04965-0.0054 0.0899 0 0.06843 4e-3 0.13686 0.0054 0.06843 0.0054 0.14491 0 0.03489-0.0027 0.06172-0.0013 0.02684-0.0054 0.04025-0.01476 0.05233-0.03891 0.07782-0.02281 0.02549-0.07916 0.02549-0.03891 0-0.06172-0.0094-0.02281-0.0081-0.03623-0.02281-0.01208-0.01476-0.0161-0.0322-4e-3 -0.01879-0.0054-0.03757l-0.01476-0.2536-0.01208 4e-3q-0.04428 0.05636-0.09661 0.12613-0.05233 0.06977-0.11539 0.13015-0.06306 0.06038-0.1382 0.10063-0.0738 0.0416-0.16101 0.0416-0.01744 0-0.04562-0.0094-0.02683-0.0081-0.05635-0.02147-0.02952-0.01342-0.05635-0.03086-0.02684-0.0161-0.04294-0.03086-0.0738-0.06843-0.10466-0.1543-0.03086-0.08587-0.03086-0.17443 0-0.04965 0.0081-0.09929 0.0081-0.04965 0.01878-0.09527 0.01073-0.04696 0.02281-0.08722 0.01342-0.0416 0.02147-0.0738 0.02549-0.10063 0.04562-0.17712 0.02013-0.07648 0.03489-0.13418 0.0161-0.0577 0.02684-0.09795 0.01073-0.0416 0.01878-0.07246zm2.2153 1.2707q-0.08319 0-0.11405-0.03623-0.03086-0.03623-0.03086-0.09929 0-0.03354 0.0067-0.07246 0.0067-0.03891 0.01744-0.08051 0.01879-0.07111 0.0416-0.14089 0.02415-0.07111 0.04696-0.14223 0.02415-0.07246 0.04562-0.14357 0.02281-0.07246 0.04025-0.14491 0.0013-0.0067 0.0013-0.01744 0-0.01879-0.0094-0.02952t-0.02818-0.01073q-0.02952 0-0.06441 0.01208-0.03354 0.01208-0.05635 0.02684-0.0899 0.06038-0.15833 0.11942-0.06709 0.05904-0.12344 0.12344-0.05635 0.06441-0.10734 0.1382-0.04964 0.07246-0.10466 0.15967-0.04696 0.08722-0.06977 0.14894-0.02281 0.06038-0.04294 0.09795-0.01878 0.03757-0.04294 0.05367-0.02415 0.01744-0.07246 0.01744-0.05367 0-0.07648-0.03086-0.02147-0.03086-0.02147-0.08051 0-0.03891 0.01208-0.08722l0.44279-1.7738q4e-3 -0.0161 0.01342-0.03489 0.0094-0.01879 0.02549-0.03489 0.0161-0.0161 0.03757-0.02684 0.02281-0.01073 0.05099-0.01073 0.02147 0 0.04562 0.0027 0.02415 0.0013 0.04294 8e-3 0.02013 0.0054 0.0322 0.01879 0.01342 0.01342 0.01342 0.03489 0 0.0054-0.0027 0.02281-0.0027 0.0161-8e-3 0.03757-0.07246 0.29117-0.15565 0.60648-0.08185 0.31532-0.16638 0.63734 0.08185-0.10063 0.17041-0.18382 0.08856-0.08453 0.18114-0.14491 0.09392-0.06038 0.19322-0.09392 0.10063-0.03489 0.20798-0.03489 0.06843 0 0.106 0.04428 0.03757 0.04294 0.03757 0.11002 0 0.03086-0.0081 0.06038-0.0161 0.06172-0.03623 0.1221-0.02013 0.05904-0.0416 0.11942-0.02147 0.06038-0.04294 0.12344-0.02147 0.06172-0.03757 0.12747-0.02147 0.08453-0.02952 0.16101-0.0081 0.07514-0.01073 0.12076-0.0027 0.03891-0.01208 0.07514-0.0094 0.03623-0.02818 0.06306-0.01744 0.02818-0.04562 0.04428-0.02684 0.01744-0.06441 0.01744zm0.06172-1.3297m1.1754 1.1955q0-0.03891 0.0094-0.09258 0.0094-0.05501 0.0094-0.13552-0.04428 0.0322-0.09795 0.07648t-0.11137 0.08453q-0.0577 0.04025-0.11539 0.06843-0.05635 0.02683-0.106 0.02683-0.04025 0-0.07648-0.01208t-0.06172-0.0322q-0.07111-0.05636-0.10332-0.11271-0.03086-0.05635-0.03086-0.13149 0-0.03354 0.0054-0.06977 0.0067-0.03623 0.01879-0.08319 0.05099-0.212 0.17443-0.3918 0.12478-0.18114 0.30861-0.30861 0.07111-0.04965 0.14223-0.06306 0.07111-0.01476 0.14089-0.01476 0.03086 0 0.06843 4e-3 0.03891 4e-3 0.06977 0.0081 0.03086-0.0067 0.04965-0.0094 0.02013-0.0027 0.04159-0.0027 0.04025 0 0.06709 0.01073 0.02683 0.01073 0.04294 0.02952 0.0161 0.01744 0.02281 0.0416 8e-3 0.02281 8e-3 0.0483 0 0.03489-0.01073 0.06709-0.01073 0.03086-0.02147 0.06306l-0.17712 0.70712q-0.0054 0.0577-0.0094 0.106-4e-3 0.0483-0.0161 0.0899-4e-3 0.01208-0.01073 0.03086-0.0054 0.01744-0.01879 0.03489-0.01342 0.0161-0.03354 0.02818-0.02013 0.01208-0.05233 0.01208-0.0416 0-0.06709-0.0054-0.02415-0.0054-0.03757-0.01476-0.01342-0.01073-0.01744-0.02415-4e-3 -0.01476-4e-3 -0.03354zm-0.44547-0.40522q-0.0054 0.01879-0.01208 0.05367-0.0054 0.03489-0.0054 0.06977 0 0.03623 0.01073 0.06575 0.01073 0.02818 0.04696 0.02818 0.05635 0 0.10466-0.02415 0.04965-0.02549 0.09258-0.06038 0.0577-0.04696 0.11674-0.10466 0.06038-0.05904 0.11271-0.12344 0.05367-0.06441 0.09392-0.13149 0.0416-0.06843 0.06038-0.13552 0.01073-0.03891 0.01744-0.0899 0.0081-0.05099 0.0081-0.09124 0-0.01744-0.0081-0.03354-8e-3 -0.01744-0.03086-0.01744-0.06575 0-0.13284 0.02549-0.06575 0.02549-0.12747 0.06843-0.06172 0.04294-0.11808 0.10198-0.05501 0.0577-0.10063 0.12479-0.04562 0.06575-0.07917 0.13686-0.0322 0.06977-0.04965 0.13686zm1.1231 0.21737q0.02013-0.07782 0.0483-0.18114 0.02818-0.10332 0.05904-0.21871 0.0322-0.11539 0.06441-0.23615 0.0322-0.12076 0.06038-0.23481 0.0013-0.0054 0.0094-0.01744 0.0081-0.01342 0.02281-0.02549 0.01476-0.01342 0.03757-0.02281 0.02281-0.0094 0.05367-0.0094 0.02281 0 0.04428 0.0054 0.02147 4e-3 0.03757 0.01342 0.01744 0.0094 0.02684 0.02549 0.01073 0.01476 0.01073 0.03489 0 4e-3 0 0.0094 0 4e-3 -0.0013 0.0081l-0.03757 0.14223q-0.06306 0.23884-0.12881 0.47901-0.0644 0.24018-0.12613 0.4817-0.0027 0.0081-0.0081 0.02013-0.0054 0.01208-0.01476 0.02415-0.0094 0.01208-0.02281 0.02013-0.01342 0.0081-0.0322 0.0081-0.03489 0-0.06172-0.01476-0.02683-0.01342-0.04562-0.03489t-0.02818-0.04696q-0.0094-0.02549-0.0094-0.0483 0-0.0067 0-0.01208 0-0.0054 0.0027-0.01208zm0.3502-1.3887q0.0067-0.02818 0.02415-0.06843 0.01744-0.04025 0.06172-0.07246 0.02147-0.01208 0.05233-0.02147 0.03086-0.01074 0.04428-0.01074t0.02683 0.0094q0.01476 0.0094 0.02549 0.02013 0.01342 0.01342 0.02549 0.02952 0.03354 0.0027 0.04294 0.02415 0.01073 0.02147 0.01073 0.05099 0 0.02147-4e-3 0.03891t-0.0067 0.02818q-0.0081 0.02818-0.03086 0.05233-0.02281 0.02281-0.05233 0.04025-0.02952 0.0161-0.06172 0.02549-0.0322 0.0094-0.05635 0.0094-0.03086 0-0.0483-0.01073-0.0161-0.01073-0.0416-0.04562-0.01476-0.02013-0.01744-0.03086-0.0013-0.01208-0.0013-0.02013 0-0.01476 0.0013-0.02549 0.0027-0.01208 0.0054-0.02281zm0.5394 1.217q0-0.11271 0.02549-0.23347 0.02549-0.1221 0.05367-0.23347-0.03489-0.0013-0.07111-0.01073-0.03623-0.0094-0.06575-0.02549-0.02952-0.0161-0.0483-0.03891-0.01879-0.02415-0.01879-0.05501 0-0.01208 0.0054-0.03086t0.01476-0.03623q0.01073-0.01879 0.02683-0.03086 0.0161-0.01342 0.03623-0.01342h0.1798q0.02549 0 0.03489-0.02147 0.0094-0.02281 0.01476-0.04428 0.01744-0.07782 0.0322-0.13418 0.0161-0.0577 0.02684-0.09661 0.01073-0.04025 0.0161-0.06441 0.0067-0.02549 0.0067-0.04025 0-0.01744-0.0013-0.03355-0.0013-0.0161-0.0013-0.04428v-0.01342q0-0.01073 0.0013-0.02818 0.0027-0.01744 0.01342-0.04965 0.0081-0.02549 0.02952-0.0483 0.02147-0.02281 0.06306-0.02281 0.03623 0 0.06172 0.01476t0.0416 0.03891q0.0161 0.02415 0.02415 0.05501 0.0081 0.03086 0.0081 0.06172 0 0.03355-0.0067 0.06038l-0.09795 0.3757q0.07246-0.01208 0.12881-0.02281 0.05636-0.01073 0.11271-0.02147 0.06172-0.01208 0.106-0.02281 0.04562-0.01073 0.07782-0.01744 0.0322-0.0081 0.05367-0.01208 0.02281-0.0054 0.03757-0.0054 0.02147 0 0.04294 4e-3 0.02281 0.0027 0.03891 0.01073 0.01744 0.0081 0.02818 0.02281 0.01073 0.01476 0.01073 0.03891 0 0.0322-0.01342 0.0577-0.01208 0.02415-0.0322 0.04294-0.02013 0.01744-0.04562 0.02952-0.02549 0.01073-0.05099 0.0161-0.02147 4e-3 -0.05635 0.01208-0.03354 0.0081-0.07514 0.01744-0.04025 0.0094-0.08453 0.02013t-0.08587 0.02147q-0.06172 0.0161-0.106 0.02684-0.04294 0.01073-0.0738 0.0161-0.03086 0.0054-0.05099 0.0081-0.01879 0.0027-0.03086 0.0027-0.02549 0.07648-0.04428 0.15028-0.01879 0.0738-0.0322 0.1382-0.01208 0.06306-0.01879 0.11405-0.0054 0.04965-0.0054 0.07782 0 0.03623 0.0067 0.06977 0.0067 0.0322 0.02281 0.05636 0.0161 0.02415 0.04294 0.03891 0.02818 0.01342 0.06977 0.01342 0.07111 0 0.13954-0.03891 0.06843-0.03891 0.13015-0.09795 0.06306-0.06038 0.11808-0.1315 0.05636-0.07111 0.10332-0.13552 0.0161-0.02415 0.0416-0.02415 0.0081 0 0.01878 0.0027 0.01208 0.0027 0.02281 0.0094 0.01074 0.0067 0.01744 0.01744 8e-3 0.01073 8e-3 0.02549 0 0.01073-0.0013 0.0161-0.02147 0.08319-0.06709 0.16772-0.04428 0.08319-0.09124 0.16772-0.0161 0.02952-0.04294 0.0577-0.02549 0.02818-0.05636 0.05501-0.03086 0.02549-0.0644 0.04965-0.03355 0.02281-0.06306 0.0416-0.05099 0.0322-0.11137 0.04428-0.06038 0.01208-0.11674 0.01208-0.08722 0-0.15565-0.03086-0.06709-0.0322-0.11405-0.08587-0.04562-0.05501-0.06977-0.12747-0.02415-0.07246-0.02415-0.15565zm1.2908 0.1798q0.01073 0 0.01879 0.0027 0.0094 0.0027 0.02013 0.0067 0.01073 0.0027 0.02415 0.0054t0.03489 0.0027q0.06306 0 0.13954-0.01342 0.07782-0.01342 0.14625-0.03489 0.06843-0.02147 0.11673-0.0483 0.04965-0.02818 0.05636-0.0577 4e-3 -0.0161 4e-3 -0.02818 0-0.02281-0.02281-0.04294-0.02147-0.02147-0.05501-0.04025-0.03354-0.01879-0.07246-0.03489-0.03891-0.0161-0.07246-0.02952l-0.04562-0.01879q-0.03489-0.01342-0.06843-0.0322-0.03354-0.02013-0.06306-0.04562-0.02818-0.02549-0.05099-0.05904-0.02147-0.03489-0.0322-0.07917-0.0054-0.01879-0.0094-0.03757-0.0027-0.01878-0.0027-0.04025 0-0.03489 0.02281-0.07916 0.02415-0.04562 0.06306-0.0899 0.04025-0.04428 0.0899-0.08453 0.05099-0.04025 0.106-0.06709 0.04025-0.02818 0.07782-0.05099t0.07514-0.03891q0.03891-0.0161 0.07782-0.02549 0.04025-0.0094 0.08453-0.0094 0.04025 0 0.08722 4e-3 0.04696 4e-3 0.08587 0.01878 0.03891 0.01476 0.06441 0.04428 0.02684 0.02818 0.02684 0.07648 0 0.01476-4e-3 0.03891t-0.01342 0.0483q-0.0094 0.02415-0.02281 0.0416-0.01342 0.01744-0.0322 0.01744-0.03086 0-0.05099-0.01208t-0.03623-0.02549q-0.0161-0.01476-0.03354-0.02684t-0.04294-0.01208q-0.03086 0-0.07246 0.01208-0.04025 0.01073-0.08319 0.03086-0.04294 0.01878-0.08453 0.04428-0.04025 0.02549-0.0738 0.05233-0.0322 0.02684-0.05233 0.05367-0.02013 0.02549-0.02013 0.04696 0 0.02281 0.01476 0.03757t0.03757 0.02549q0.02952 0.0161 0.06709 0.0322 0.03891 0.0161 0.07782 0.0322t0.07514 0.0322q0.03757 0.0161 0.06441 0.02952 0.03623 0.01878 0.0644 0.03757 0.02952 0.01744 0.04965 0.03891t0.03086 0.0483q0.01073 0.02684 0.01073 0.06306 0 0.01744-0.0027 0.03489-0.0027 0.01744-0.0081 0.04025-4e-3 0.02013-0.01476 0.04696-0.0094 0.02684-0.02147 0.05367-0.01073 0.02549-0.02281 0.04696-0.01208 0.02013-0.02013 0.02683-0.05233 0.0483-0.12344 0.09124-0.07112 0.0416-0.14894 0.0738-0.07648 0.03086-0.1543 0.04965-0.07648 0.01879-0.14089 0.01879-0.0322 0-0.07111-0.01208-0.03891-0.01342-0.07246-0.03354-0.0322-0.02147-0.05501-0.0483-0.02147-0.02683-0.02147-0.05367 0-0.01342 8e-3 -0.02952 0.0081-0.01744 0.02013-0.03086 0.01208-0.01476 0.02549-0.02415 0.01476-0.01073 0.02683-0.01073zm3.2659-1.6477q0 0.05635-0.05501 0.17041-0.0416 0.08722-0.16504 0.41595-0.1221 0.32739-0.14894 0.40522-0.02684 0.07782-0.0483 0.19053-0.01744 0.08722-0.12076 0.08722-0.13284 0-0.13284-0.1315 0-0.1382 0.1637-0.53 0.16504-0.39314 0.2536-0.53805 0.08856-0.14625 0.1704-0.14625 0.08319 0 0.08319 0.07648zm-0.44547 1.6678q0 0.09258-0.07111 0.16101-0.07111 0.06709-0.16236 0.06709-0.06977 0-0.11942-0.0483-0.0483-0.04965-0.0483-0.11942 0-0.09258 0.0738-0.16236 0.07514-0.07111 0.16504-0.07111 0.06977 0 0.11539 0.04965 0.04696 0.04965 0.04696 0.12344z" style="inline-size:18.5018;white-space:pre" aria-label="souhaits !"/>
   <path transform="matrix(3.0112 -.80423 .13218 4.468 -69.326 -162.7)" d="m36.986 50.727q0-0.11271 0.02549-0.23347 0.02549-0.1221 0.05367-0.23347-0.03489-0.0013-0.07111-0.01073-0.03623-0.0094-0.06575-0.02549-0.02952-0.0161-0.0483-0.03891-0.01878-0.02415-0.01878-0.05501 0-0.01208 0.0054-0.03086t0.01476-0.03623q0.01073-0.01879 0.02684-0.03086 0.0161-0.01342 0.03623-0.01342h0.1798q0.02549 0 0.03489-0.02147 0.0094-0.02281 0.01476-0.04428 0.01744-0.07782 0.0322-0.13418 0.0161-0.0577 0.02684-0.09661 0.01073-0.04025 0.0161-0.06441 0.0067-0.02549 0.0067-0.04025 0-0.01744-0.0013-0.03355-0.0013-0.0161-0.0013-0.04428v-0.01342q0-0.01073 0.0013-0.02818 0.0027-0.01744 0.01342-0.04965 0.0081-0.02549 0.02952-0.0483 0.02147-0.02281 0.06306-0.02281 0.03623 0 0.06172 0.01476t0.0416 0.03891q0.0161 0.02415 0.02415 0.05501 0.0081 0.03086 0.0081 0.06172 0 0.03355-0.0067 0.06038l-0.09795 0.3757q0.07246-0.01208 0.12881-0.02281 0.05636-0.01073 0.11271-0.02147 0.06172-0.01208 0.106-0.02281 0.04562-0.01073 0.07782-0.01744 0.0322-0.0081 0.05367-0.01208 0.02281-0.0054 0.03757-0.0054 0.02147 0 0.04294 4e-3 0.02281 0.0027 0.03891 0.01073 0.01744 0.0081 0.02818 0.02281 0.01074 0.01476 0.01074 0.03891 0 0.0322-0.01342 0.0577-0.01208 0.02415-0.0322 0.04294-0.02013 0.01744-0.04562 0.02952-0.02549 0.01073-0.05099 0.0161-0.02147 4e-3 -0.05635 0.01208-0.03355 0.0081-0.07514 0.01744-0.04025 0.0094-0.08453 0.02013t-0.08587 0.02147q-0.06172 0.0161-0.106 0.02684-0.04294 0.01073-0.0738 0.0161-0.03086 0.0054-0.05099 0.0081-0.01879 0.0027-0.03086 0.0027-0.02549 0.07648-0.04428 0.15028-0.01878 0.0738-0.0322 0.1382-0.01208 0.06306-0.01879 0.11405-0.0054 0.04965-0.0054 0.07782 0 0.03623 0.0067 0.06977 0.0067 0.0322 0.02281 0.05636 0.0161 0.02415 0.04294 0.03891 0.02818 0.01342 0.06977 0.01342 0.07111 0 0.13954-0.03891 0.06843-0.03891 0.13015-0.09795 0.06306-0.06038 0.11808-0.1315 0.05635-0.07111 0.10332-0.13552 0.0161-0.02415 0.0416-0.02415 0.0081 0 0.01879 0.0027 0.01208 0.0027 0.02281 0.0094t0.01744 0.01744q8e-3 0.01073 8e-3 0.02549 0 0.01073-0.0013 0.0161-0.02147 0.08319-0.06709 0.16772-0.04428 0.08319-0.09124 0.16772-0.0161 0.02952-0.04294 0.0577-0.02549 0.02818-0.05635 0.05501-0.03086 0.02549-0.06441 0.04965-0.03355 0.02281-0.06306 0.0416-0.05099 0.0322-0.11137 0.04428-0.06038 0.01208-0.11674 0.01208-0.08722 0-0.15565-0.03086-0.06709-0.0322-0.11405-0.08587-0.04562-0.05501-0.06977-0.12747-0.02415-0.07246-0.02415-0.15565zm1.2398-0.10063q0-0.0577 0.03086-0.09795t0.08185-0.05367q0.01476-0.02952 0.04562-0.07916 0.03086-0.05099 0.07648-0.11003 0.04562-0.05904 0.10332-0.11808 0.05904-0.06038 0.12881-0.10868 0.07111-0.04965 0.15162-0.08051 0.08185-0.03086 0.17309-0.03086 0.07782 0 0.13552 0.01879 0.0577 0.01879 0.09527 0.05233 0.03757 0.03355 0.05636 0.08051 0.01879 0.04562 0.01879 0.09929 0 0.04562-0.01208 0.08722-0.01879 0.07514-0.06977 0.13149-0.05099 0.05636-0.12076 0.09929-0.06843 0.0416-0.15028 0.06977-0.08051 0.02818-0.16236 0.04696-0.08051 0.01879-0.15565 0.02952-0.07514 0.0094-0.13015 0.01476-0.01208 0.02415-0.02147 0.06172-0.0081 0.03623-0.0081 0.07111 0 0.07782 0.06172 0.12076t0.17041 0.04294q0.06306 0 0.12076-0.01342 0.0577-0.01476 0.10868-0.03623 0.05233-0.02281 0.09795-0.0483 0.04562-0.02684 0.08319-0.05233 0.0483-0.0322 0.09124-0.05367 0.04428-0.02281 0.07782-0.02281t0.04294 0.01744q0.0094 0.0161 0.0094 0.03489 0 0.01073-0.0013 0.02147 0 0.0094-0.0013 0.0161-0.0067 0.03489-0.02684 0.06977-0.02013 0.03489-0.05099 0.06038-0.13954 0.11003-0.28714 0.15699-0.14625 0.04696-0.31263 0.04696-0.0322 0-0.07648-4e-3 -0.04294-4e-3 -0.0899-0.0161-0.04696-0.01208-0.09258-0.03489t-0.08185-0.06038q-0.03489-0.03757-0.0577-0.09258-0.02147-0.05501-0.02147-0.13284 0-0.06306 0.01744-0.14089-0.01744-0.0027-0.03355-0.01744-0.01476-0.0161-0.01476-0.04562zm0.83995-0.37167q0.0027-0.0067 0.0027-0.01208 0-0.0054 0-0.01208 0-0.03623-0.02683-0.05367-0.02684-0.01879-0.06441-0.01879-0.05904 0-0.11673 0.03086-0.05636 0.03086-0.10734 0.07782-0.04964 0.04562-0.08856 0.09929-0.03891 0.05233-0.06038 0.09527 0.09661-0.0081 0.17712-0.02549 0.08051-0.01879 0.13954-0.04562 0.06038-0.02818 0.09661-0.06172 0.03757-0.03489 0.0483-0.0738zm-0.15565-0.36362m0.72456 1.0157q0.01073 0 0.01879 0.0027 0.0094 0.0027 0.02013 0.0067 0.01073 0.0027 0.02415 0.0054t0.03489 0.0027q0.06306 0 0.13954-0.01342 0.07782-0.01342 0.14625-0.03489 0.06843-0.02147 0.11674-0.0483 0.04965-0.02818 0.05636-0.0577 4e-3 -0.0161 4e-3 -0.02818 0-0.02281-0.02281-0.04294-0.02147-0.02147-0.05501-0.04025-0.03354-0.01879-0.07246-0.03489-0.03891-0.0161-0.07246-0.02952l-0.04562-0.01879q-0.03489-0.01342-0.06843-0.0322-0.03354-0.02013-0.06306-0.04562-0.02818-0.02549-0.05099-0.05904-0.02147-0.03489-0.0322-0.07917-0.0054-0.01879-0.0094-0.03757-0.0027-0.01878-0.0027-0.04025 0-0.03489 0.02281-0.07916 0.02415-0.04562 0.06306-0.0899 0.04025-0.04428 0.0899-0.08453 0.05099-0.04025 0.106-0.06709 0.04025-0.02818 0.07782-0.05099t0.07514-0.03891q0.03891-0.0161 0.07782-0.02549 0.04025-0.0094 0.08453-0.0094 0.04025 0 0.08722 4e-3 0.04696 4e-3 0.08587 0.01878 0.03891 0.01476 0.06441 0.04428 0.02683 0.02818 0.02683 0.07648 0 0.01476-4e-3 0.03891t-0.01342 0.0483q-0.0094 0.02415-0.02281 0.0416-0.01342 0.01744-0.0322 0.01744-0.03086 0-0.05099-0.01208t-0.03623-0.02549q-0.0161-0.01476-0.03355-0.02684-0.01744-0.01208-0.04294-0.01208-0.03086 0-0.07246 0.01208-0.04025 0.01073-0.08319 0.03086-0.04294 0.01878-0.08453 0.04428-0.04025 0.02549-0.0738 0.05233-0.0322 0.02684-0.05233 0.05367-0.02013 0.02549-0.02013 0.04696 0 0.02281 0.01476 0.03757t0.03757 0.02549q0.02952 0.0161 0.06709 0.0322 0.03891 0.0161 0.07782 0.0322t0.07514 0.0322q0.03757 0.0161 0.06441 0.02952 0.03623 0.01878 0.06441 0.03757 0.02952 0.01744 0.04965 0.03891t0.03086 0.0483q0.01073 0.02684 0.01073 0.06306 0 0.01744-0.0027 0.03489-0.0027 0.01744-0.0081 0.04025-4e-3 0.02013-0.01476 0.04696-0.0094 0.02684-0.02147 0.05367-0.01074 0.02549-0.02281 0.04696-0.01208 0.02013-0.02013 0.02683-0.05233 0.0483-0.12344 0.09124-0.07111 0.0416-0.14894 0.0738-0.07648 0.03086-0.1543 0.04965-0.07648 0.01879-0.14089 0.01879-0.0322 0-0.07111-0.01208-0.03891-0.01342-0.07246-0.03354-0.0322-0.02147-0.05501-0.0483-0.02147-0.02683-0.02147-0.05367 0-0.01342 0.0081-0.02952 0.0081-0.01744 0.02013-0.03086 0.01208-0.01476 0.02549-0.02415 0.01476-0.01073 0.02683-0.01073z" style="inline-size:18.5018;white-space:pre" aria-label="tes"/>
   <path transform="matrix(3.0112 -.80423 .13218 4.468 -77.559 -160.5)" d="m37.998 51.159q-0.02818 0-0.04965-0.01073t-0.03623-0.02818q-0.01342-0.01744-0.02147-0.04025-0.0067-0.02281-0.0067-0.04562 0-0.02013 0.01073-0.05501 0.01073-0.03623 0.02684-0.08051 0.01744-0.04428 0.03757-0.09258t0.03891-0.09258q0.01879-0.04428 0.0322-0.08185 0.01342-0.03757 0.01879-0.05904 0.0054-0.02415 0.01342-0.0577 0.0081-0.03354 0.01744-0.07246 0.01073-0.04025 0.02013-0.08319 0.01073-0.04428 0.02147-0.08856-0.01879 4e-3 -0.04696 0.0081-0.02684 0.0027-0.0577 0.0054-0.04428 4e-3 -0.08722 0.01208-0.04294 0.0081-0.08856 0.01879-0.04428 0.0094-0.09258 0.02147-0.0483 0.01073-0.10332 0.02281-0.08051 0.01744-0.16101 0.03891-0.08051 0.02147-0.16772 0.02147-0.02684 0-0.04965-0.01342-0.02281-0.01476-0.05099-0.02147-0.02683 0.04294-0.05099 0.09258-0.02415 0.0483-0.04428 0.10063-0.02013 0.05099-0.03623 0.10198-0.0161 0.04965-0.02818 0.09392-0.0067 0.02415-0.01208 0.06306-4e-3 0.03757-0.0081 0.07782-4e-3 0.03891-0.0081 0.07514-4e-3 0.03623-0.0081 0.0577-4e-3 0.02013-0.0161 0.04025-0.01208 0.01879-0.02952 0.03489t-0.03891 0.02549q-0.02147 0.01073-0.04294 0.01073-0.03757 0-0.06172-0.02147-0.02281-0.02281-0.03757-0.05501-0.01342-0.03355-0.01879-0.07246-0.0054-0.03891-0.0054-0.07111 0-0.08185 0.02013-0.16906 0.02013-0.08856 0.05367-0.17846 0.03489-0.09124 0.08051-0.18248 0.04696-0.09258 0.10063-0.18382 0.04428-0.08185 0.11003-0.18919 0.06575-0.10734 0.14625-0.22005 0.08185-0.11405 0.17577-0.22274 0.09527-0.10868 0.19724-0.19322 0.10198-0.08587 0.20932-0.1382 0.10734-0.05233 0.21334-0.05233 0.11137 0 0.18516 0.04025 0.07514 0.04025 0.11942 0.10868 0.04428 0.06843 0.06172 0.15967 0.01879 0.09124 0.01879 0.19322 0 0.0899-0.01208 0.18516-0.01073 0.09527-0.02818 0.18651-0.0161 0.09124-0.03623 0.17577-0.01879 0.08453-0.03489 0.15296l-0.04696 0.18248q-0.0027 8e-3 -0.01073 0.0322-0.0067 0.02415-0.01879 0.05904-0.01073 0.03354-0.02549 0.0738-0.01342 0.03891-0.02818 0.07782-0.01342 0.03757-0.02684 0.06977-0.01208 0.0322-0.02147 0.05233l0.0013-0.0013q-0.0094 0.03489-0.02013 0.07111-0.01073 0.03623-0.02952 0.06575-0.01879 0.02818-0.0483 0.04696-0.02952 0.01744-0.07648 0.01744zm0.06843-1.6799q-0.06038 0-0.12076 0.02549-0.05904 0.02415-0.11673 0.06441-0.0577 0.04025-0.11271 0.09392-0.05367 0.05367-0.10332 0.11003-0.0483 0.05636-0.09124 0.11405-0.04294 0.05635-0.07782 0.10466-0.0054 8e-3 -0.01476 0.02147-0.0081 0.01208-0.01744 0.02818-0.0081 0.01476-0.0161 0.0322-0.0081 0.0161-0.01342 0.02952h0.1382q0.07514 0 0.17175-0.01073 0.09661-0.01073 0.19053-0.02549 0.09527-0.01476 0.17443-0.02952 0.07916-0.0161 0.11942-0.02415 0.0054-0.01744 0.0094-0.04696 0.0054-0.02952 0.0094-0.06575t0.0054-0.07648q0.0027-0.0416 0.0027-0.08453 0-0.03489-0.0027-0.07917-0.0027-0.04562-0.0161-0.08587-0.01342-0.04025-0.0416-0.06709-0.02684-0.02818-0.07648-0.02818zm-0.31532-0.87081q0.01073-0.04025 0.04025-0.06575 0.03086-0.02549 0.06441-0.02549 0.0322 0 0.04562 0.0067t0.02549 0.01744q0.03891 0.03355 0.10466 0.08856 0.06575 0.05501 0.14223 0.11808l0.05367 0.04428q0.01879 0.01476 0.03623 0.04025t0.01744 0.06038q0 0.01744-0.0054 0.03623-0.0054 0.01744-0.01744 0.0322-0.01073 0.01342-0.02818 0.02281-0.01744 0.0094-0.0416 0.0094-0.02549 0-0.04428-0.0067-0.01878-0.0067-0.03757-0.01878l-0.29519-0.19724q-0.0322-0.02281-0.05099-0.04696-0.01744-0.02549-0.01744-0.06306 0-0.02415 0.0081-0.05233z" style="inline-size:18.5018;white-space:pre" aria-label="À  "/>
  </g>
  <path transform="rotate(-17.441)" d="m52.614 64.141h10.065v0.71053h-10.065z" fill="url(#radialGradient29)" stroke-width=".26502"/>
 </g>
</svg>
