<?xml version="1.0" encoding="UTF-8"?>
<svg width="180" height="138" version="1.0" viewBox="0 0 180 138" xmlns="http://www.w3.org/2000/svg" xmlns:xlink="http://www.w3.org/1999/xlink">
 <defs>
  <linearGradient id="linearGradient68">
   <stop stop-color="#a33513" offset="0"/>
  </linearGradient>
  <linearGradient id="swatch58">
   <stop stop-color="#f26d21" offset="0"/>
  </linearGradient>
  <linearGradient id="linearGradient5119">
   <stop offset="0"/>
   <stop stop-opacity="0" offset="1"/>
  </linearGradient>
  <linearGradient id="linearGradient3969">
   <stop stop-color="#4d4d4d" offset="0"/>
   <stop stop-color="#4d4d4d" stop-opacity="0" offset="1"/>
  </linearGradient>
  <linearGradient id="linearGradient4224">
   <stop stop-color="#fff" offset="0"/>
   <stop stop-color="#4d4d4d" stop-opacity="0" offset="1"/>
  </linearGradient>
  <linearGradient id="linearGradient3892">
   <stop stop-color="#fff" offset="0"/>
   <stop stop-color="#fff" stop-opacity="0" offset="1"/>
  </linearGradient>
  <linearGradient id="linearGradient2672" x1="999.14" x2="1003" y1="206.81" y2="213.36" gradientTransform="translate(17.482,-35.69)" gradientUnits="userSpaceOnUse">
   <stop stop-color="#b3b3b3" offset="0"/>
   <stop stop-color="#fff" offset="1"/>
  </linearGradient>
  <linearGradient id="linearGradient2674" x1="1006.7" x2="1006.1" y1="170.13" y2="164.62" gradientUnits="userSpaceOnUse">
   <stop stop-color="#7f7f7f" stop-opacity="0" offset="0"/>
   <stop offset="1"/>
  </linearGradient>
  <linearGradient id="linearGradient2680" x1="1015.5" x2="1013" y1="170.63" y2="165.69" gradientUnits="userSpaceOnUse">
   <stop stop-color="#333" offset="0"/>
   <stop stop-color="#fff" stop-opacity="0" offset="1"/>
  </linearGradient>
  <linearGradient id="linearGradient2686" x1="1019.5" x2="1015.7" y1="174.22" y2="169.45" gradientUnits="userSpaceOnUse">
   <stop offset="0"/>
   <stop stop-opacity="0" offset="1"/>
  </linearGradient>
  <linearGradient id="linearGradient2688" x1="1027.7" x2="1017.1" y1="166.91" y2="174.3" gradientUnits="userSpaceOnUse">
   <stop stop-color="#333" offset="0"/>
   <stop stop-color="#ccc" offset="1"/>
  </linearGradient>
  <linearGradient id="linearGradient2696" x1="1031.8" x2="1032.4" y1="164.11" y2="171.9" gradientUnits="userSpaceOnUse">
   <stop stop-color="#fff" offset="0"/>
   <stop stop-color="#fff" stop-opacity="0" offset="1"/>
  </linearGradient>
  <linearGradient id="linearGradient2706" x1="1020.7" x2="1027" y1="173.07" y2="173.07" gradientTransform="matrix(15.815,0,0,15.815,-15731,-2436.6)" gradientUnits="userSpaceOnUse">
   <stop stop-color="#ccc" offset="0"/>
   <stop stop-color="#191919" offset="1"/>
  </linearGradient>
  <linearGradient id="linearGradient2714" x1="1012.3" x2="1006.7" y1="172.48" y2="174.09" gradientTransform="matrix(15.815,0,0,15.815,-15731,-2436.6)" gradientUnits="userSpaceOnUse">
   <stop stop-color="#b3b3b3" offset="0"/>
   <stop stop-color="#fff" offset="1"/>
  </linearGradient>
  <linearGradient id="linearGradient2726" x1="990.99" x2="991.81" y1="237.27" y2="232.99" gradientTransform="matrix(15.815,0,0,15.815,-15470,-3000.2)" gradientUnits="userSpaceOnUse">
   <stop offset="0"/>
   <stop stop-opacity="0" offset="1"/>
  </linearGradient>
  <linearGradient id="linearGradient2733" x1="1007.9" x2="1020" y1="210.21" y2="235.48" gradientTransform="matrix(15.815,0,0,15.815,-15470,-3000.2)" gradientUnits="userSpaceOnUse">
   <stop stop-color="#e6e6e6" offset="0"/>
   <stop stop-color="#666" offset="1"/>
  </linearGradient>
  <linearGradient id="linearGradient2738" x1="994.01" x2="996.02" y1="235.88" y2="216.38" gradientTransform="matrix(15.815,0,0,15.815,-15470,-3000.2)" gradientUnits="userSpaceOnUse">
   <stop stop-color="#fff" offset="0"/>
   <stop stop-color="#e6e6e6" offset="1"/>
  </linearGradient>
  <filter id="filter4715-6" x="-.059716" y="-.13306" width="1.1194" height="1.2661">
   <feGaussianBlur stdDeviation="2.3861645"/>
  </filter>
  <radialGradient id="radialGradient2650-75" cx="985.76" cy="238.35" r="11.035" gradientTransform="matrix(1.1641,-1.9754,2.046,1.2058,-614.23,1863.9)" gradientUnits="userSpaceOnUse">
   <stop stop-color="#fff" offset="0"/>
   <stop stop-color="#fff" stop-opacity="0" offset="1"/>
  </radialGradient>
  <filter id="filter4049-2" x="-.031101" y="-.028918" width="1.0622" height="1.0578">
   <feGaussianBlur stdDeviation="0.28665188"/>
  </filter>
  <linearGradient id="linearGradient2652-1" x1="1002.9" x2="1002.9" y1="233.49" y2="218.97" gradientUnits="userSpaceOnUse" xlink:href="#linearGradient3892"/>
  <filter id="filter3888-7" x="-.85879" y="-.02387" width="2.7176" height="1.0477">
   <feGaussianBlur stdDeviation="0.15719063"/>
  </filter>
  <linearGradient id="linearGradient2654-5" x1="991.58" x2="992.39" y1="219.12" y2="214.7" gradientTransform="translate(16.514,-35.636)" gradientUnits="userSpaceOnUse" xlink:href="#linearGradient4224"/>
  <filter id="filter4286-8" x="-.023609" y="-.047218" width="1.0472" height="1.0944">
   <feGaussianBlur stdDeviation="0.18001918"/>
  </filter>
  <linearGradient id="linearGradient2656-9" x1="1002.8" x2="1003.1" y1="215.93" y2="223.38" gradientTransform="translate(16.514,-35.636)" gradientUnits="userSpaceOnUse" xlink:href="#linearGradient3892"/>
  <filter id="filter3840-4" x="-.017521" y="-.048708" width="1.035" height="1.0974">
   <feGaussianBlur stdDeviation="0.29143607"/>
  </filter>
  <filter id="filter3936-2" x="-.019503" y="-.015663" width="1.039" height="1.0313">
   <feGaussianBlur stdDeviation="0.19096396"/>
  </filter>
  <linearGradient id="linearGradient2660-4" x1="991.58" x2="992.39" y1="219.12" y2="214.7" gradientTransform="translate(30.258,-36.49)" gradientUnits="userSpaceOnUse" xlink:href="#linearGradient4224"/>
  <filter id="filter3954-3" x="-.01348" y="-.012468" width="1.027" height="1.0249">
   <feGaussianBlur stdDeviation="0.14602923"/>
  </filter>
  <radialGradient id="radialGradient2730-4" cx="1006.3" cy="164.89" r="5.4729" gradientTransform="matrix(15.657,27.812,-42.83,24.111,-8504.3,-31809)" gradientUnits="userSpaceOnUse">
   <stop stop-color="#333" offset="0"/>
   <stop stop-color="#efefef" offset="1"/>
  </radialGradient>
  <linearGradient id="linearGradient2666-0" x1="991.1" x2="991.1" y1="208.36" y2="220.49" gradientTransform="translate(16.514,-35.636)" gradientUnits="userSpaceOnUse" xlink:href="#linearGradient3969"/>
  <filter id="filter4009-5" x="-.086254" y="-.028729" width="1.1725" height="1.0575">
   <feGaussianBlur stdDeviation="0.15094464"/>
  </filter>
  <linearGradient id="linearGradient2670-5" x1="991.1" x2="991.1" y1="208.36" y2="220.49" gradientTransform="translate(22.384 -.58596)" gradientUnits="userSpaceOnUse" xlink:href="#linearGradient3969"/>
  <filter id="filter4332-1" x="-.028915" y="-.03103" width="1.0578" height="1.0621">
   <feGaussianBlur stdDeviation="0.079515375"/>
  </filter>
  <filter id="filter4358-0" x="-.023811" y="-.10046" width="1.0476" height="1.2009">
   <feGaussianBlur stdDeviation="0.139889"/>
  </filter>
  <filter id="filter5203-9" x="-.094461" y="-.053734" width="1.1889" height="1.1075">
   <feGaussianBlur stdDeviation="0.14911291"/>
  </filter>
  <radialGradient id="radialGradient2717-2" cx="990.44" cy="209.14" r="5.838" gradientTransform="matrix(-28.792,-35.184,33.772,-27.637,21787,40907)" gradientUnits="userSpaceOnUse">
   <stop stop-color="#fff" offset="0"/>
   <stop stop-color="#b3b3b3" offset="1"/>
  </radialGradient>
  <filter id="filter4875-7" x="-.035403" y="-.05509" width="1.0708" height="1.1102">
   <feGaussianBlur stdDeviation="0.083783289"/>
  </filter>
  <filter id="filter4943-8" x="-.059957" y="-.033222" width="1.1199" height="1.0664">
   <feGaussianBlur stdDeviation="0.10492554"/>
  </filter>
  <radialGradient id="radialGradient2709-3" cx="999.93" cy="205.93" r="2.8655" gradientTransform="matrix(55.986,25.92,-51.367,110.96,-45063,-48503)" gradientUnits="userSpaceOnUse">
   <stop stop-color="#fff" offset="0"/>
   <stop offset="1"/>
  </radialGradient>
  <filter id="filter5073-24" x="-.025042" y="-.036275" width="1.0501" height="1.0726">
   <feGaussianBlur stdDeviation="0.052773018"/>
  </filter>
  <linearGradient id="linearGradient2690-2" x1="1036.5" x2="1025.1" y1="164.83" y2="174.4" gradientUnits="userSpaceOnUse">
   <stop stop-color="#ccc" offset="0"/>
   <stop stop-color="#fff" offset="1"/>
  </linearGradient>
  <linearGradient id="linearGradient2692-8" x1="1004.5" x2="1008.6" y1="162.97" y2="162.04" gradientUnits="userSpaceOnUse" xlink:href="#linearGradient5119"/>
  <filter id="filter5115-5" x="-.028252" y="-.06425" width="1.0565" height="1.1285">
   <feGaussianBlur stdDeviation="0.06950493"/>
  </filter>
  <linearGradient id="linearGradient2694-2" x1="1006.5" x2="1008.2" y1="161.72" y2="163.86" gradientTransform="translate(22.425 .7176)" gradientUnits="userSpaceOnUse" xlink:href="#linearGradient5119"/>
  <filter id="filter5389-4" x="-.041025" y="-.029521" width="1.0821" height="1.059">
   <feGaussianBlur stdDeviation="0.080260832"/>
  </filter>
  <linearGradient id="linearGradient57" x1="1031.8" x2="1032.4" y1="164.11" y2="171.9" gradientUnits="userSpaceOnUse" xlink:href="#linearGradient2696"/>
  <linearGradient id="linearGradient58" x1="33.65" x2="675.15" y1="366.39" y2="366.39" gradientUnits="userSpaceOnUse" xlink:href="#swatch58"/>
  <linearGradient id="linearGradient59" x1="38.852" x2="667.61" y1="550.9" y2="550.9" gradientUnits="userSpaceOnUse" xlink:href="#swatch58"/>
  <filter id="filter4715" x="-.059726" y="-.13305" width="1.1195" height="1.2661" color-interpolation-filters="sRGB">
   <feGaussianBlur stdDeviation="2.3861645"/>
  </filter>
  <linearGradient id="linearGradient2" x1="-4.0327" x2="164.1" y1="770.65" y2="770.65" gradientUnits="userSpaceOnUse" xlink:href="#swatch1"/>
  <linearGradient id="swatch1">
   <stop stop-color="#ffcf63" offset="0"/>
  </linearGradient>
  <filter id="filter4049" x="-.031173" y="-.028913" width="1.0623" height="1.0578" color-interpolation-filters="sRGB">
   <feGaussianBlur stdDeviation="0.28665188"/>
  </filter>
  <filter id="filter3888" x="-.85879" y="-.02387" width="2.7176" height="1.0477" color-interpolation-filters="sRGB">
   <feGaussianBlur stdDeviation="0.15719063"/>
  </filter>
  <linearGradient id="linearGradient1" x1="-5.4249" x2="166.11" y1="721.32" y2="721.32" gradientUnits="userSpaceOnUse" xlink:href="#swatch1"/>
  <filter id="filter4286" x="-.023665" y="-.04722" width="1.0473" height="1.0944" color-interpolation-filters="sRGB">
   <feGaussianBlur stdDeviation="0.18001918"/>
  </filter>
  <filter id="filter3840" x="-.017504" y="-.048721" width="1.035" height="1.0974" color-interpolation-filters="sRGB">
   <feGaussianBlur stdDeviation="0.29143607"/>
  </filter>
  <filter id="filter3936-0" x="-.0195" y="-.015665" width="1.039" height="1.0313" color-interpolation-filters="sRGB">
   <feGaussianBlur stdDeviation="0.19096396"/>
  </filter>
  <filter id="filter3954-9" x="-.013484" y="-.012466" width="1.027" height="1.0249" color-interpolation-filters="sRGB">
   <feGaussianBlur stdDeviation="0.14602923"/>
  </filter>
  <radialGradient id="radialGradient3366" cx="927.73" cy="395.1" r="86.556" gradientTransform="matrix(.2674 0 0 .24018 -197.01 585.05)" gradientUnits="userSpaceOnUse" xlink:href="#linearGradient6934"/>
  <linearGradient id="linearGradient6934">
   <stop stop-color="#eb6139" offset="0"/>
   <stop stop-color="#a53211" offset="1"/>
  </linearGradient>
  <linearGradient id="linearGradient3304" x1="990.06" x2="990.27" y1="222.94" y2="211.53" gradientTransform="translate(16.514,-35.636)" gradientUnits="userSpaceOnUse" xlink:href="#linearGradient6934"/>
  <filter id="filter4009-8" x="-.086365" y="-.028725" width="1.1727" height="1.0575" color-interpolation-filters="sRGB">
   <feGaussianBlur stdDeviation="0.15094464"/>
  </filter>
  <linearGradient id="linearGradient3362" x1="989.74" x2="988.96" y1="231.85" y2="236.39" gradientTransform="matrix(4.2291,0,0,4.2291,-4151.4,-179.22)" gradientUnits="userSpaceOnUse" xlink:href="#linearGradient6934"/>
  <linearGradient id="linearGradient3308" x1="990.6" x2="991.61" y1="222.27" y2="213.87" gradientTransform="translate(22.384 -.58596)" gradientUnits="userSpaceOnUse" xlink:href="#linearGradient6934"/>
  <linearGradient id="linearGradient3310" x1="1018.9" x2="1015.5" y1="178.21" y2="168.84" gradientUnits="userSpaceOnUse" xlink:href="#linearGradient6934"/>
  <filter id="filter4332-8" x="-.029033" y="-.031035" width="1.0581" height="1.0621" color-interpolation-filters="sRGB">
   <feGaussianBlur stdDeviation="0.079515375"/>
  </filter>
  <filter id="filter4358-1" x="-.023869" y="-.10043" width="1.0477" height="1.2009" color-interpolation-filters="sRGB">
   <feGaussianBlur stdDeviation="0.139889"/>
  </filter>
  <filter id="filter5203-8" x="-.094803" y="-.05371" width="1.1896" height="1.1074" color-interpolation-filters="sRGB">
   <feGaussianBlur stdDeviation="0.14911291"/>
  </filter>
  <radialGradient id="radialGradient3352" cx="848.78" cy="582.26" r="111.22" gradientTransform="matrix(.36763 -.05032 .027327 .19965 -296.89 636.86)" gradientUnits="userSpaceOnUse" xlink:href="#linearGradient6934"/>
  <filter id="filter4875-6" x="-.035087" y="-.055048" width="1.0702" height="1.1101" color-interpolation-filters="sRGB">
   <feGaussianBlur stdDeviation="0.083783289"/>
  </filter>
  <linearGradient id="linearGradient3321" x1="1014.1" x2="1016.1" y1="165.27" y2="170.9" gradientUnits="userSpaceOnUse" xlink:href="#linearGradient6934"/>
  <filter id="filter4943-8-1" x="-.060357" y="-.033224" width="1.1207" height="1.0664" color-interpolation-filters="sRGB">
   <feGaussianBlur stdDeviation="0.10492554"/>
  </filter>
  <linearGradient id="linearGradient3347" x1="1023.6" x2="1047.6" y1="465.44" y2="431.4" gradientTransform="matrix(.2674 0 0 .2674 -197.01 574.3)" gradientUnits="userSpaceOnUse" xlink:href="#linearGradient6934"/>
  <linearGradient id="linearGradient3343" x1="1020.7" x2="1027" y1="173.07" y2="173.07" gradientTransform="matrix(4.2291,0,0,4.2291,-4221.2,-28.512)" gradientUnits="userSpaceOnUse" xlink:href="#linearGradient6934"/>
  <filter id="filter5073-2" x="-.025177" y="-.036277" width="1.0504" height="1.0726" color-interpolation-filters="sRGB">
   <feGaussianBlur stdDeviation="0.052773018"/>
  </filter>
  <linearGradient id="linearGradient4142" x1="1020.3" x2="1030" y1="173.31" y2="168.55" gradientUnits="userSpaceOnUse" xlink:href="#linearGradient6934"/>
  <linearGradient id="linearGradient3329" x1="1004.5" x2="1008.6" y1="162.97" y2="162.04" gradientUnits="userSpaceOnUse">
   <stop offset="0"/>
   <stop stop-opacity="0" offset="1"/>
  </linearGradient>
  <filter id="filter5115-8" x="-.028242" y="-.064366" width="1.0565" height="1.1287" color-interpolation-filters="sRGB">
   <feGaussianBlur stdDeviation="0.06950493"/>
  </filter>
  <linearGradient id="linearGradient4144" x1="1007.5" x2="1009.5" y1="162.13" y2="170.04" gradientTransform="translate(22.425 .7176)" gradientUnits="userSpaceOnUse" xlink:href="#linearGradient6934"/>
  <linearGradient id="linearGradient3333" x1="1032.6" x2="1032.3" y1="164.42" y2="169.47" gradientUnits="userSpaceOnUse">
   <stop stop-color="#fff" offset="0"/>
   <stop stop-color="#eb6139" offset="1"/>
  </linearGradient>
  <filter id="filter5389-7" x="-.040883" y="-.029521" width="1.0818" height="1.059" color-interpolation-filters="sRGB">
   <feGaussianBlur stdDeviation="0.080260832"/>
  </filter>
  <linearGradient id="linearGradient3277" x1="1007.4" x2="1007.9" y1="167.43" y2="162.82" gradientUnits="userSpaceOnUse">
   <stop stop-color="#7f7f7f" stop-opacity="0" offset="0"/>
   <stop offset="1"/>
  </linearGradient>
  <filter id="filter5203-8-6" x="-.042815" y="-.06886" width="1.0856" height="1.1377" color-interpolation-filters="sRGB">
   <feGaussianBlur stdDeviation="0.14911291"/>
  </filter>
  <filter id="filter4715-6-6" x="-.059716" y="-.13306" width="1.1194" height="1.2661">
   <feGaussianBlur stdDeviation="2.3861645"/>
  </filter>
  <filter id="filter4049-2-7" x="-.031101" y="-.028918" width="1.0622" height="1.0578">
   <feGaussianBlur stdDeviation="0.28665188"/>
  </filter>
  <filter id="filter3888-7-3" x="-.85879" y="-.02387" width="2.7176" height="1.0477">
   <feGaussianBlur stdDeviation="0.15719063"/>
  </filter>
  <filter id="filter4286-8-7" x="-.023609" y="-.047218" width="1.0472" height="1.0944">
   <feGaussianBlur stdDeviation="0.18001918"/>
  </filter>
  <filter id="filter3840-4-3" x="-.017521" y="-.048708" width="1.035" height="1.0974">
   <feGaussianBlur stdDeviation="0.29143607"/>
  </filter>
  <filter id="filter3936-2-7" x="-.019503" y="-.015663" width="1.039" height="1.0313">
   <feGaussianBlur stdDeviation="0.19096396"/>
  </filter>
  <filter id="filter3954-3-4" x="-.01348" y="-.012468" width="1.027" height="1.0249">
   <feGaussianBlur stdDeviation="0.14602923"/>
  </filter>
  <filter id="filter4009-5-0" x="-.086254" y="-.028729" width="1.1725" height="1.0575">
   <feGaussianBlur stdDeviation="0.15094464"/>
  </filter>
  <filter id="filter4332-1-8" x="-.028915" y="-.03103" width="1.0578" height="1.0621">
   <feGaussianBlur stdDeviation="0.079515375"/>
  </filter>
  <filter id="filter4358-0-8" x="-.023811" y="-.10046" width="1.0476" height="1.2009">
   <feGaussianBlur stdDeviation="0.139889"/>
  </filter>
  <filter id="filter5203-9-6" x="-.094461" y="-.053734" width="1.1889" height="1.1075">
   <feGaussianBlur stdDeviation="0.14911291"/>
  </filter>
  <filter id="filter4875-7-7" x="-.035403" y="-.05509" width="1.0708" height="1.1102">
   <feGaussianBlur stdDeviation="0.083783289"/>
  </filter>
  <filter id="filter4943-8-2" x="-.059957" y="-.033222" width="1.1199" height="1.0664">
   <feGaussianBlur stdDeviation="0.10492554"/>
  </filter>
  <filter id="filter5073-24-0" x="-.025042" y="-.036275" width="1.0501" height="1.0726">
   <feGaussianBlur stdDeviation="0.052773018"/>
  </filter>
  <filter id="filter5115-5-6" x="-.028252" y="-.06425" width="1.0565" height="1.1285">
   <feGaussianBlur stdDeviation="0.06950493"/>
  </filter>
  <filter id="filter5389-4-6" x="-.041025" y="-.029521" width="1.0821" height="1.059">
   <feGaussianBlur stdDeviation="0.080260832"/>
  </filter>
  <linearGradient id="linearGradient69" x1="38.852" x2="667.61" y1="550.9" y2="550.9" gradientUnits="userSpaceOnUse" xlink:href="#linearGradient68"/>
  <linearGradient id="linearGradient70" x1="33.65" x2="675.15" y1="366.39" y2="366.39" gradientUnits="userSpaceOnUse" xlink:href="#linearGradient68"/>
 </defs>
 <g transform="matrix(.094942 .0053949 -.0053949 .094942 106.98 39.176)">
  <g fill-rule="evenodd">
   <path transform="matrix(6.968,0,0,7.1641,-8911.7,-4137.4)" d="m1281.8 669.91 53.2 20.64 42.7-29.39-53.2-13.65z" filter="url(#filter4715-6-6)" opacity=".75581"/>
   <path d="m38.852 368.18v277.03l354.81 128.85 273.95-183.15v-263.18l-281.65 149.29z" fill="url(#linearGradient69)"/>
   <path transform="matrix(15.815,0,0,15.815,-15731,-2436.6)" d="m997.28 194.51 22.12 8.26v-17.07l-22.12-6.72z" fill="url(#radialGradient2650-75)" filter="url(#filter4049-2-7)" opacity=".52536"/>
  </g>
  <rect transform="matrix(18.002,0,0,18.002,-17663,-3520.4)" x="1002.7" y="222.42" width=".43929" height="15.805" fill="url(#linearGradient2652-1)" filter="url(#filter3888-7-3)" opacity=".52174"/>
  <path d="m319.5 219.77 355.65 56.07-0.87 95.52-279.89 141.64-360.74-110.9 0.584-97.65 285.27-84.68z" fill="url(#linearGradient70)"/>
  <g fill-rule="evenodd">
   <path transform="matrix(15.815,0,0,15.815,-15731,-2436.6)" d="m996.92 175.07 0.09 4.36 22.19 6.9 0.1-5.08z" fill="url(#linearGradient2654-5)" filter="url(#filter4286-8-7)" opacity=".5"/>
   <path transform="matrix(15.815,0,0,15.815,-15731,-2436.6)" d="m997.08 173.49 22.42 5.94 17.5-7.69v0.46l-17.3 7.67-0.1 6.23h-0.5v-6.23l-21.99-5.85z" fill="url(#linearGradient2656-9)" filter="url(#filter3840-4-3)"/>
   <path transform="matrix(15.815,0,0,15.815,-15731,-2436.6)" d="m1023.9 170.19-18.3 5.78-0.2 21.61 4.6 1.87 0.2-22.15 18.7-7.08z" filter="url(#filter3936-2-7)"/>
   <path d="m467.13 243.06-296.48 97.89-4.41 351.7 73.66 26.47 3.71-357.02 297.45-107.8z" fill="url(#linearGradient2738)"/>
   <path transform="matrix(-15.815,3.8478,0,15.815,16726,-6396.6)" d="m1014.7 176.33 0.4 4.61 17.8 4.54 0.1-5.09z" fill="url(#linearGradient2660-4)" filter="url(#filter4286-8-7)" opacity=".5"/>
   <path transform="matrix(15.815,0,0,15.815,-15731,-2436.6)" d="m1005.3 170.83 21.8 5.57v21.42l4.2-2.82-0.2-20.54-21.6-4.75z" filter="url(#filter3954-3-4)"/>
   <path d="m168.16 264.43 347.16 86.04-1.31 343.43 65.88-44.22-1.13-329.87-342.1-76.34z" fill="url(#linearGradient2733)"/>
   <path d="m244.01 172.71s3.45 28.5 23.26 54.73c9.4 12.45 45.83 33.52 45.83 33.52l19.85 23.94s-20.53 6.85-30.79 5.48-61.17-16.14-80.32-27.09c-19.16-10.94-53.36-49.52-55.42-58.42-2.05-8.89-11.5-32.01-3.29-47.07 8.21-15.05 24.1-22.03 28.89-22.72 4.79-0.68 49.94 22.58 49.94 22.58z" fill="url(#radialGradient2730-4)"/>
   <path transform="matrix(15.815,0,0,15.815,-15731,-2436.6)" d="m1005.6 175.93 4.2 1.02-0.3 11.59-4-3.55z" fill="url(#linearGradient2666-0)" filter="url(#filter4009-5-0)" opacity=".59058"/>
   <path d="m168.62 651.7-1.18 39.97 71.34 25.75 0.59-44.11z" fill="url(#linearGradient2726)"/>
   <path transform="matrix(-13.1,0,0,13.1,13829,-2431.5)" d="m1011.5 210.58 4.1 1.82-0.2 11.19-4-3.55z" fill="url(#linearGradient2670-5)" filter="url(#filter4009-5-0)" opacity=".67391"/>
   <g transform="matrix(15.741,1.5274,-1.5274,15.741,-15388,-3975.6)">
    <path d="m1015 173.21s1.9-0.14 2.2 0.99-0.6 2.48 1.8 4.67c0.7-0.36 0.7-1.06 0.7-1.06l1.9 0.77s-1.5-2.19-1.5-3.11c0-0.91 0.2-2.05-0.4-2.4-0.7-0.35-3.8-0.35-3.8-0.35z" filter="url(#filter4332-1-8)" opacity=".9529"/>
    <path d="m1015.1 173.08s1.9-0.14 2.2 0.99-0.6 2.47 1.8 4.66c0.7-0.35 0.7-1.06 0.7-1.06l1.9 0.78s-1.5-2.19-1.5-3.11 0.2-2.05-0.4-2.4c-0.7-0.36-3.8-0.36-3.8-0.36z" fill="url(#linearGradient2672)"/>
   </g>
   <path transform="matrix(15.815,0,0,15.815,-15731,-2436.6)" d="m1010.4 171.77s-1.8 0.92-2.7 1.2c-0.8 0.28-5.5-0.07-5.5-0.07l2.4 0.78-0.6 1.41s3.5 0.04 4.8-0.14c1.9-0.26 2.5-1.77 5.1-1.84 1.6-0.04 2.4 0.14 2.4 0.14s-2.1-1.69-5.9-1.48z" filter="url(#filter4358-0-8)"/>
   <path transform="matrix(15.815,0,0,15.815,-15731,-2436.6)" d="m1008.6 163.52s-1.1-0.63-1.5-0.63c-0.5 0-2 0.58-2.1 1.36-0.2 0.79-0.4 2.42 0.3 3.36 0.8 0.95 1.9 1.94 1.9 1.94s-1.7-3.16-1-4.61c0.8-1.59 2.4-1.42 2.4-1.42z" fill="url(#linearGradient2674)" filter="url(#filter5203-9-6)"/>
   <path d="m232.25 117.91c-29.76 2.09-61.2 23.06-71.66 41.02-13.95 23.95 8.02 67.13 40.3 92.09 44.25 34.2 110.44 35.47 110.44 35.47 0-1.03 43.23 11.95 25.7-38.6-25.18-72.57-42.19-108.02-76.11-125.04-8.69-4.36-18.75-5.64-28.67-4.94zm-41.62 28.34c30.19-9.41 49.04 31.59 62.38 48.27 16.42 20.52 57.82 81.05 57.82 81.05l8.4 10.87s-4.57 0.08-50.41-10.87c-45.83-10.95-78.79-42-80.16-44.74-27.31-32.41-35.35-72.42 1.97-84.58z" fill="url(#radialGradient2717-2)"/>
   <path d="m253.71 276.38s-29.07 14.53-42.48 19-87.19-1.12-87.19-1.12l38.01 12.3-10.07 22.35s55.74 0.55 76.02-2.23c29.92-4.1 39.12-27.95 80.48-29.07 24.81-0.67 38.01 2.24 38.01 2.24s-33.54-26.83-92.78-23.47z" fill="url(#linearGradient2714)"/>
   <path transform="matrix(15.815,0,0,15.815,-15731,-2436.6)" d="m1019.9 171.39s-3.1-1.43-3.8-1.43-1.9 1.37-1.5 2.21c0.3 0.85 2.8 1.44 3.6 1.44 0.7-0.18 1.3-0.4 2-0.72 0-0.45-0.3-1.5-0.3-1.5z" filter="url(#filter4875-7-7)"/>
   <path transform="matrix(15.815,0,0,15.815,-15731,-2436.6)" d="m1011.9 167.01 2.8 4.38 1.4-1.04s-1.4-3.13-2.2-4.52-1.3-2.02-1.3-2.02 1.2 2.92 0.9 3.48-1.5-0.28-1.6-0.28z" fill="url(#linearGradient2680)" filter="url(#filter4943-8-2)"/>
   <path d="m398.03 272.81c-4.89-4.12-49.56-24.03-60.91-24.03s-29.91 21.66-24.76 35.07c5.16 13.41 45.39 22.7 57.77 22.7 11.03-2.83 21.05-6.33 31.98-11.35 0-7.22 2.15-15.29-4.08-22.39z" fill="url(#radialGradient2709-3)"/>
   <path d="m379.46 306.11s35.54 13.03 57.43 16.45 66.4 10.92 77.35 6.81c10.94-4.1 70.46-16.42 78.67-29.41 8.21-13-43.78-15.06-43.78-15.06s-29.42 18.48-49.95 19.84c-20.52 1.37-80.72-12.99-80.72-12.99l-38.31 10.26z" fill="url(#linearGradient2706)"/>
   <path transform="matrix(15.815,0,0,15.815,-15731,-2436.6)" d="m1015.6 169.98s0.4-0.17 0.7-0.07c0.4 0.13 0.7 0.18 1.6 0.57 1 0.43 1.7 0.76 1.8 0.81 0.5 0.48 0.1 0.98 0.2 1.54-0.4 0.17-1.4 0.51-1.6 0.54-0.7-0.65 0.1-1.76 1.1-1.84-0.2-0.22-1.2-0.73-1.5-0.85-0.8-0.33-1.7-0.65-1.7-0.65s-0.9-0.11-1.3 0.61c0.1-0.36 0.7-0.7 0.7-0.66z" fill="url(#linearGradient2686)" filter="url(#filter5073-24-0)"/>
   <g transform="matrix(15.815,0,0,15.815,-15731,-2436.6)">
    <path d="m1019 173.12 2.1-0.52s3.5-2.94 3.9-3.12c2-1.64 4.5-2.25 6.5-1.51 0 0-0.2-2.64-0.9-2.98-0.7-0.35-2.6-0.61-2.6-0.61s-2.6 1.73-2.9 2.03-4.7 4.63-4.7 4.63l-1.3 1.62-0.3 0.56z" fill="url(#linearGradient2688)"/>
    <path d="m1029.8 163.55c-3.4 0.22-10 8.06-10.4 8.49s-1 1.37-1 1.32 4.3 1.88 7.9 1.66 8.2-2.41 8.6-5.54c0.6-3.6-1.8-6.14-5.1-5.93zm-2.3 1.49c1.1-0.2 3.5-0.22 3.1 3.42-0.3 2.25-1.9 5.82-5.2 6-3.3 0.17-6.6-1.27-6.6-1.31 0 0 5.3-5.61 5.6-5.79 0.2-0.17 1.8-2 3.1-2.32z" fill="url(#linearGradient2690-2)"/>
   </g>
   <path transform="matrix(15.815,0,0,15.815,-15731,-2436.6)" d="m1004.7 164.66c-0.1-0.82 1.5-2.01 2.9-2.53 1.3-0.53 3-0.36 3-0.36s-1.5 0.67-2.1 1.12c-1.2-0.12-2.4 0.41-2.4 0.41s-0.7 0.28-1.4 1.36z" fill="url(#linearGradient2692-8)" filter="url(#filter5115-5-6)" opacity=".55797"/>
   <path transform="matrix(15.416,3.5311,-3.5311,15.416,-14738,-6002.9)" d="m1026.8 165.52c0.8-1.14 1.3-1.64 2.9-2.13 1.4-0.42 3.8 0.67 3.8 0.67s-1.3 1.37-1.9 1.83c-0.7-0.94-2.5-1.22-2.5-1.22s-1.1-0.15-2.3 0.85z" fill="url(#linearGradient2694-2)" filter="url(#filter5115-5-6)" opacity=".55797"/>
   <path transform="matrix(15.815,0,0,15.815,-15731,-2436.6)" d="m1030.8 165.7s0.7 1.76 0.3 3.24-1 2.36-1 2.36 2 0.38 3-0.05c1-0.44 1.5-1.27 1.5-1.27s0.5-2.47-0.1-3.62-1.4-1.43-1.4-1.43-1.4 0-2.3 0.77z" fill="url(#linearGradient57)" filter="url(#filter5389-4-6)"/>
  </g>
 </g>
 <g transform="matrix(.46575 .0027587 -.0027587 .46575 41.498 -269.7)">
  <g fill-rule="evenodd">
   <path transform="matrix(1.8633,0,0,1.9157,-2397.4,-483)" d="m1281.8 669.91 53.192 20.647 42.693-29.395-53.192-13.648z" filter="url(#filter4715)" opacity=".75581"/>
   <path d="m-4.0327 721.79v74.079l94.875 34.455 73.256-48.974v-70.375l-75.314 39.92-92.817-29.104z" fill="url(#linearGradient2)"/>
   <path transform="matrix(4.2291,0,0,4.2291,-4220.8,-28.21)" d="m997.28 194.51 22.069 8.2646v-17.074l-22.069-6.7207v15.53z" fill="url(#radialGradient2650-75)" filter="url(#filter4049)" opacity=".52536"/>
  </g>
  <rect transform="matrix(4.8138,0,0,4.8138,-4737.4,-318.03)" x="1002.7" y="222.42" width=".43929" height="15.805" fill="url(#linearGradient2652-1)" filter="url(#filter3888)" opacity=".52174"/>
  <path d="m71.012 682.11 95.102 14.994-0.23387 25.542-74.841 37.876-96.464-29.656 0.15715-26.111 76.28-22.644z" fill="url(#linearGradient1)"/>
  <g fill-rule="evenodd">
   <path transform="matrix(4.2291,0,0,4.2291,-4220.8,-28.21)" d="m996.92 175.07 0.0908 4.3594 22.16 6.9024 0.091-5.086-22.342-6.1758z" fill="url(#linearGradient2654-5)" filter="url(#filter4286)" opacity=".5"/>
   <path transform="matrix(4.2291,0,0,4.2291,-4220.8,-28.21)" d="m997.08 173.49 22.371 5.9407 17.588-7.6939-0.022 0.45696-17.306 7.6695-0.086 6.2298h-0.5191l-9e-4 -6.2298-21.999-5.8465-0.0261-0.52675z" fill="url(#linearGradient2656-9)" filter="url(#filter3840)"/>
   <path transform="matrix(-4.2291,1.0289,0,4.2291,4458.1,-1087.1)" d="m1014.7 176.33 0.3586 4.6081 17.807 4.5416 0.091-5.086-18.256-4.0637z" fill="url(#linearGradient2660-4)" filter="url(#filter4286)" opacity=".5"/>
   <path transform="matrix(4.2291,0,0,4.2291,-4221.2,-28.512)" d="m1023.9 170.19-18.317 5.772-0.2486 21.614 4.6796 1.8718 0.1817-22.148 18.642-7.0797-4.9383-0.0293z" filter="url(#filter3936-0)"/>
   <path d="m110.09 688.03-79.278 26.178-1.1803 94.045 19.697 7.0767 0.99087-95.468 79.539-28.826-19.768-3.006z" fill="#eb6139"/>
   <path transform="matrix(4.2291,0,0,4.2291,-4221.2,-28.512)" d="m1005.3 170.83 21.722 5.5672 0.041 21.425 4.2276-2.8171-0.258-20.547-21.529-4.7506-4.2034 1.122z" filter="url(#filter3954-9)"/>
   <path d="m30.149 693.75 92.831 23.006-0.35059 91.835 17.616-11.826-0.30278-88.207-91.479-20.413-18.315 5.6058z" fill="#eb6139"/>
   <path d="m50.43 669.22s0.92236 7.6209 6.2197 14.635c2.5138 3.3289 12.256 8.9638 12.256 8.9638l5.3054 6.4027s-5.4881 1.8293-8.2323 1.4635c-2.7438-0.36586-16.356-4.3154-21.478-7.2423-5.1223-2.927-14.269-13.243-14.818-15.621-0.54851-2.3781-3.0754-8.562-0.88007-12.587 2.1949-4.0246 6.4434-5.893 7.724-6.076 1.2806-0.18295 13.354 6.0368 13.354 6.0368l0.54893 4.0246z" fill="url(#radialGradient3366)"/>
   <path transform="matrix(4.2291,0,0,4.2291,-4221.2,-28.512)" d="m1005.6 175.93 4.1583 1.0225-0.2727 11.589-4.022-3.5448 0.1364-9.0664z" fill="url(#linearGradient3304)" filter="url(#filter4009-8)" opacity=".59058"/>
   <path d="m30.272 797.31-0.31634 10.686 19.077 6.8866 0.15817-11.794-18.918-5.7785z" fill="url(#linearGradient3362)"/>
   <path transform="matrix(-3.503,0,0,3.503,3683,-27.16)" d="m1011.5 210.58 4.0583 1.8229-0.1727 11.188-4.0219-3.5448 0.1363-9.4666z" fill="url(#linearGradient3308)" filter="url(#filter4009-8)" opacity=".67391"/>
   <g transform="matrix(4.2093 .40844 -.40844 4.2093 -4129.6 -440.06)" fill="url(#linearGradient3310)">
    <path d="m1015 173.21s1.9083-0.14136 2.191 0.98952-0.6361 2.4738 1.767 4.6649c0.7068-0.3534 0.7775-1.0602 0.7775-1.0602l1.8377 0.77748s-1.4843-2.1911-1.4843-3.1099c0-0.91884 0.212-2.0497-0.4241-2.4031s-3.746-0.3534-3.746-0.3534l-0.9188 0.49476z" filter="url(#filter4332-8)" opacity=".9529"/>
    <path d="m1015.1 173.08s1.9083-0.14136 2.191 0.98952-0.6361 2.4738 1.767 4.6649c0.7068-0.3534 0.7775-1.0602 0.7775-1.0602l1.8377 0.77748s-1.4843-2.1911-1.4843-3.1099c0-0.91884 0.212-2.0497-0.4241-2.4031s-3.746-0.3534-3.746-0.3534l-0.9188 0.49476z"/>
   </g>
   <path transform="matrix(4.2291,0,0,4.2291,-4221.2,-28.512)" d="m1010.4 171.77s-1.8377 0.91884-2.6858 1.2016c-0.8482 0.28272-5.5131-0.0707-5.5131-0.0707l2.4031 0.77748-0.6361 1.4136s3.5238 0.0344 4.8063-0.14136c1.8919-0.25932 2.4738-1.767 5.0889-1.8377 1.5688-0.0424 2.4032 0.14136 2.4032 0.14136s-2.1204-1.6963-5.8665-1.4843z" filter="url(#filter4358-1)"/>
   <path transform="matrix(4.2291,0,0,4.2291,-4221.2,-28.512)" d="m1008.6 163.52s-1.1018-0.62958-1.5215-0.62958-1.9412 0.57711-2.0986 1.3641c-0.1574 0.78697-0.3673 2.4134 0.3673 3.3577 0.7345 0.94437 1.8362 1.9412 1.8362 1.9412s-1.6628-3.1658-0.9443-4.6169c0.7878-1.5909 2.4133-1.4166 2.3609-1.4166z" fill="url(#linearGradient2674)" filter="url(#filter5203-8)"/>
   <path d="m47.285 654.57c-7.9583 0.55866-16.366 6.1654-19.163 10.969-3.7296 6.4051 2.1441 17.951 10.777 24.624 11.831 9.145 29.531 9.4856 29.531 9.4856 0-0.27586 11.561 3.1957 6.8722-10.321-6.7327-19.407-11.282-28.885-20.352-33.436-2.3226-1.1656-5.0123-1.5078-7.6652-1.3216zm-11.128 7.5785c8.0708-2.5164 13.111 8.447 16.679 12.906 4.3906 5.488 15.463 21.674 15.463 21.674l2.2465 2.9075s-1.2235 0.0194-13.48-2.9075c-12.256-2.927-21.071-11.231-21.436-11.962-7.3028-8.6672-9.452-19.367 0.52864-22.618z" fill="#eb6139"/>
   <path d="m53.023 696.94s-7.7718 3.8858-11.359 5.0815c-3.5867 1.1956-23.315-0.29891-23.315-0.29891l10.163 3.288-2.6901 5.9783s14.902 0.14552 20.326-0.59783c8.0014-1.0967 10.462-7.4728 21.522-7.7717 6.6346-0.17931 10.163 0.59783 10.163 0.59783s-8.9673-7.1739-24.809-6.2771z" fill="url(#radialGradient3352)"/>
   <path transform="matrix(4.2291,0,0,4.2291,-4221.2,-28.512)" d="m1019.9 171.39s-3.0658-1.435-3.7833-1.435-1.8916 1.3698-1.5655 2.2178c0.3262 0.84798 2.8701 1.435 3.6528 1.435 0.697-0.17877 1.3308-0.39979 2.0221-0.71753 0-0.4566-0.3261-1.5003-0.3261-1.5003z" filter="url(#filter4875-6)"/>
   <path transform="matrix(4.2291,0,0,4.2291,-4221.2,-28.512)" d="m1011.9 167.01 2.7814 4.3808 1.3908-1.043s-1.3908-3.1291-2.1557-4.5198-1.3212-2.0166-1.3212-2.0166 1.1822 2.9205 0.904 3.4768c-0.2781 0.55629-1.4603-0.27815-1.5993-0.27815z" fill="url(#linearGradient3321)" filter="url(#filter4943-8-1)"/>
   <path d="m91.615 695.99c-1.3064-1.1038-13.253-6.4277-16.287-6.4277-3.0343 0-7.9997 5.793-6.6206 9.3792 1.3795 3.5862 12.138 6.0689 15.448 6.0689 2.9477-0.75604 5.6281-1.6908 8.5516-3.0345 0-1.931 0.5743-4.0888-1.092-5.986z" fill="url(#linearGradient3347)"/>
   <path d="m86.651 704.9s9.5015 3.4831 15.355 4.3978c5.8539 0.91466 17.756 2.9196 20.683 1.822 2.9269-1.0976 18.842-4.3904 21.038-7.8662 2.1953-3.4758-11.708-4.0246-11.708-4.0246s-7.8665 4.9392-13.355 5.3051c-5.4876 0.3659-21.586-3.4758-21.586-3.4758l-10.245 2.744-0.18269 1.0976z" fill="url(#linearGradient3343)"/>
   <path transform="matrix(4.2291,0,0,4.2291,-4221.2,-28.512)" d="m1015.6 169.98s0.3477-0.16297 0.6448-0.0679c0.4241 0.13575 0.7643 0.1869 1.6798 0.57692 0.9873 0.42059 1.6537 0.75134 1.7216 0.80225 0.5576 0.47906 0.178 0.98646 0.1958 1.5394-0.3394 0.16968-1.3914 0.50904-1.5441 0.54298-0.7065-0.65205 0.082-1.7571 1.0518-1.84-0.1282-0.21455-1.2056-0.73421-1.4607-0.85297-0.8282-0.32936-1.746-0.64973-1.746-0.64973s-0.8478-0.105-1.2218 0.61086c0.085-0.35634 0.7127-0.69569 0.6788-0.66176z" fill="url(#linearGradient2686)" filter="url(#filter5073-2)"/>
   <g transform="matrix(4.2291,0,0,4.2291,-4221.2,-28.512)" fill="url(#linearGradient4142)">
    <path d="m1019 173.12 2.1196-0.51907s3.4605-2.9414 3.8498-3.1145c1.9938-1.6435 4.482-2.2504 6.5317-1.514 0 0-0.2163-2.6386-0.9084-2.9847-0.6921-0.34605-2.5954-0.60559-2.5954-0.60559s-2.5744 1.7264-2.8772 2.0291c-0.3028 0.3028-4.7064 4.6314-4.7064 4.6314l-1.3773 1.6192-0.2754 0.56514 0.239-0.10706z"/>
    <path d="m1029.8 163.55c-3.374 0.21628-9.9919 8.0562-10.381 8.4888-0.3893 0.43256-0.978 1.3653-0.9348 1.322 0 0 4.2136 1.8743 7.8472 1.658 3.6335-0.21628 8.1798-2.4104 8.6545-5.5397 0.5458-3.597-1.8117-6.1453-5.1857-5.929zm-2.2982 1.4924c1.1398-0.20797 3.5794-0.22585 3.142 3.4138-0.2708 2.2534-1.8881 5.827-5.2188 6-3.3308 0.17303-6.586-1.2675-6.5428-1.3108 0 1e-5 5.2952-5.61 5.5116-5.783 0.2162-0.17303 1.8037-2.0023 3.108-2.3201z"/>
   </g>
   <path transform="matrix(4.2291,0,0,4.2291,-4221.2,-28.512)" d="m1004.7 164.66c-0.1477-0.81079 1.467-2.0056 2.831-2.5303 1.3641-0.52465 3.0661-0.3563 3.0661-0.3563s-1.4949 0.67108-2.1136 1.1237c-1.2466-0.12671-2.3898 0.40758-2.3898 0.40758s-0.7192 0.27735-1.3937 1.3553z" fill="url(#linearGradient3329)" filter="url(#filter5115-8)" opacity=".55797"/>
   <path transform="matrix(4.1223 .94423 -.94423 4.1223 -3955.7 -982.14)" d="m1026.8 165.52c0.833-1.1376 1.272-1.644 2.917-2.1309 1.4015-0.41477 3.7517 0.66958 3.7517 0.66958s-1.2915 1.3749-1.9102 1.8275c-0.6837-0.93412-2.499-1.2178-2.499-1.2178s-1.0552-0.14341-2.2595 0.85157z" fill="url(#linearGradient4144)" filter="url(#filter5115-8)" opacity=".55797"/>
   <path transform="matrix(4.2291,0,0,4.2291,-4221.2,-28.512)" d="m1030.8 165.7s0.7138 1.757 0.3295 3.2395c-0.3844 1.4825-1.0433 2.361-1.0433 2.361s2.0316 0.38435 3.02-0.0549c0.9883-0.43925 1.5374-1.2629 1.5374-1.2629s0.4392-2.4708-0.1648-3.6239c-0.6039-1.153-1.3177-1.4276-1.3177-1.4276s-1.4825 0-2.3611 0.7687z" fill="url(#linearGradient3333)" filter="url(#filter5389-7)"/>
   <path transform="matrix(-4.2291,0,0,4.2291,4384.8,-19.34)" d="m1009.3 163.89s-1.8443-0.96612-2.2626-1.0002c-1.1949-0.0972-3.0771 1.0177-2.5751 2.3699l4.2238 0.68204c3.7101 3.272 5.7661 2.6018 2.2021-0.72835z" fill="url(#linearGradient3277)" filter="url(#filter5203-8-6)"/>
  </g>
 </g>
 <g transform="matrix(.09922 .0089018 -.0089018 .09922 79.969 -1.9114)">
  <g fill-rule="evenodd">
   <path transform="matrix(6.968,0,0,7.1641,-8911.7,-4137.4)" d="m1281.8 669.91 53.2 20.64 42.7-29.39-53.2-13.65z" filter="url(#filter4715-6)" opacity=".75581"/>
   <path d="m38.852 368.18v277.03l354.81 128.85 273.95-183.15v-263.18l-281.65 149.29z" fill="url(#linearGradient59)"/>
   <path transform="matrix(15.815,0,0,15.815,-15731,-2436.6)" d="m997.28 194.51 22.12 8.26v-17.07l-22.12-6.72z" fill="url(#radialGradient2650-75)" filter="url(#filter4049-2)" opacity=".52536"/>
  </g>
  <rect transform="matrix(18.002,0,0,18.002,-17663,-3520.4)" x="1002.7" y="222.42" width=".43929" height="15.805" fill="url(#linearGradient2652-1)" filter="url(#filter3888-7)" opacity=".52174"/>
  <path d="m319.5 219.77 355.65 56.07-0.87 95.52-279.89 141.64-360.74-110.9 0.584-97.65 285.27-84.68z" fill="url(#linearGradient58)"/>
  <g fill-rule="evenodd">
   <path transform="matrix(15.815,0,0,15.815,-15731,-2436.6)" d="m996.92 175.07 0.09 4.36 22.19 6.9 0.1-5.08z" fill="url(#linearGradient2654-5)" filter="url(#filter4286-8)" opacity=".5"/>
   <path transform="matrix(15.815,0,0,15.815,-15731,-2436.6)" d="m997.08 173.49 22.42 5.94 17.5-7.69v0.46l-17.3 7.67-0.1 6.23h-0.5v-6.23l-21.99-5.85z" fill="url(#linearGradient2656-9)" filter="url(#filter3840-4)"/>
   <path transform="matrix(15.815,0,0,15.815,-15731,-2436.6)" d="m1023.9 170.19-18.3 5.78-0.2 21.61 4.6 1.87 0.2-22.15 18.7-7.08z" filter="url(#filter3936-2)"/>
   <path d="m467.13 243.06-296.48 97.89-4.41 351.7 73.66 26.47 3.71-357.02 297.45-107.8z" fill="url(#linearGradient2738)"/>
   <path transform="matrix(-15.815,3.8478,0,15.815,16726,-6396.6)" d="m1014.7 176.33 0.4 4.61 17.8 4.54 0.1-5.09z" fill="url(#linearGradient2660-4)" filter="url(#filter4286-8)" opacity=".5"/>
   <path transform="matrix(15.815,0,0,15.815,-15731,-2436.6)" d="m1005.3 170.83 21.8 5.57v21.42l4.2-2.82-0.2-20.54-21.6-4.75z" filter="url(#filter3954-3)"/>
   <path d="m168.16 264.43 347.16 86.04-1.31 343.43 65.88-44.22-1.13-329.87-342.1-76.34z" fill="url(#linearGradient2733)"/>
   <path d="m244.01 172.71s3.45 28.5 23.26 54.73c9.4 12.45 45.83 33.52 45.83 33.52l19.85 23.94s-20.53 6.85-30.79 5.48-61.17-16.14-80.32-27.09c-19.16-10.94-53.36-49.52-55.42-58.42-2.05-8.89-11.5-32.01-3.29-47.07 8.21-15.05 24.1-22.03 28.89-22.72 4.79-0.68 49.94 22.58 49.94 22.58z" fill="url(#radialGradient2730-4)"/>
   <path transform="matrix(15.815,0,0,15.815,-15731,-2436.6)" d="m1005.6 175.93 4.2 1.02-0.3 11.59-4-3.55z" fill="url(#linearGradient2666-0)" filter="url(#filter4009-5)" opacity=".59058"/>
   <path d="m168.62 651.7-1.18 39.97 71.34 25.75 0.59-44.11z" fill="url(#linearGradient2726)"/>
   <path transform="matrix(-13.1,0,0,13.1,13829,-2431.5)" d="m1011.5 210.58 4.1 1.82-0.2 11.19-4-3.55z" fill="url(#linearGradient2670-5)" filter="url(#filter4009-5)" opacity=".67391"/>
   <g transform="matrix(15.741,1.5274,-1.5274,15.741,-15388,-3975.6)">
    <path d="m1015 173.21s1.9-0.14 2.2 0.99-0.6 2.48 1.8 4.67c0.7-0.36 0.7-1.06 0.7-1.06l1.9 0.77s-1.5-2.19-1.5-3.11c0-0.91 0.2-2.05-0.4-2.4-0.7-0.35-3.8-0.35-3.8-0.35z" filter="url(#filter4332-1)" opacity=".9529"/>
    <path d="m1015.1 173.08s1.9-0.14 2.2 0.99-0.6 2.47 1.8 4.66c0.7-0.35 0.7-1.06 0.7-1.06l1.9 0.78s-1.5-2.19-1.5-3.11 0.2-2.05-0.4-2.4c-0.7-0.36-3.8-0.36-3.8-0.36z" fill="url(#linearGradient2672)"/>
   </g>
   <path transform="matrix(15.815,0,0,15.815,-15731,-2436.6)" d="m1010.4 171.77s-1.8 0.92-2.7 1.2c-0.8 0.28-5.5-0.07-5.5-0.07l2.4 0.78-0.6 1.41s3.5 0.04 4.8-0.14c1.9-0.26 2.5-1.77 5.1-1.84 1.6-0.04 2.4 0.14 2.4 0.14s-2.1-1.69-5.9-1.48z" filter="url(#filter4358-0)"/>
   <path transform="matrix(15.815,0,0,15.815,-15731,-2436.6)" d="m1008.6 163.52s-1.1-0.63-1.5-0.63c-0.5 0-2 0.58-2.1 1.36-0.2 0.79-0.4 2.42 0.3 3.36 0.8 0.95 1.9 1.94 1.9 1.94s-1.7-3.16-1-4.61c0.8-1.59 2.4-1.42 2.4-1.42z" fill="url(#linearGradient2674)" filter="url(#filter5203-9)"/>
   <path d="m232.25 117.91c-29.76 2.09-61.2 23.06-71.66 41.02-13.95 23.95 8.02 67.13 40.3 92.09 44.25 34.2 110.44 35.47 110.44 35.47 0-1.03 43.23 11.95 25.7-38.6-25.18-72.57-42.19-108.02-76.11-125.04-8.69-4.36-18.75-5.64-28.67-4.94zm-41.62 28.34c30.19-9.41 49.04 31.59 62.38 48.27 16.42 20.52 57.82 81.05 57.82 81.05l8.4 10.87s-4.57 0.08-50.41-10.87c-45.83-10.95-78.79-42-80.16-44.74-27.31-32.41-35.35-72.42 1.97-84.58z" fill="url(#radialGradient2717-2)"/>
   <path d="m253.71 276.38s-29.07 14.53-42.48 19-87.19-1.12-87.19-1.12l38.01 12.3-10.07 22.35s55.74 0.55 76.02-2.23c29.92-4.1 39.12-27.95 80.48-29.07 24.81-0.67 38.01 2.24 38.01 2.24s-33.54-26.83-92.78-23.47z" fill="url(#linearGradient2714)"/>
   <path transform="matrix(15.815,0,0,15.815,-15731,-2436.6)" d="m1019.9 171.39s-3.1-1.43-3.8-1.43-1.9 1.37-1.5 2.21c0.3 0.85 2.8 1.44 3.6 1.44 0.7-0.18 1.3-0.4 2-0.72 0-0.45-0.3-1.5-0.3-1.5z" filter="url(#filter4875-7)"/>
   <path transform="matrix(15.815,0,0,15.815,-15731,-2436.6)" d="m1011.9 167.01 2.8 4.38 1.4-1.04s-1.4-3.13-2.2-4.52-1.3-2.02-1.3-2.02 1.2 2.92 0.9 3.48-1.5-0.28-1.6-0.28z" fill="url(#linearGradient2680)" filter="url(#filter4943-8)"/>
   <path d="m398.03 272.81c-4.89-4.12-49.56-24.03-60.91-24.03s-29.91 21.66-24.76 35.07c5.16 13.41 45.39 22.7 57.77 22.7 11.03-2.83 21.05-6.33 31.98-11.35 0-7.22 2.15-15.29-4.08-22.39z" fill="url(#radialGradient2709-3)"/>
   <path d="m379.46 306.11s35.54 13.03 57.43 16.45 66.4 10.92 77.35 6.81c10.94-4.1 70.46-16.42 78.67-29.41 8.21-13-43.78-15.06-43.78-15.06s-29.42 18.48-49.95 19.84c-20.52 1.37-80.72-12.99-80.72-12.99l-38.31 10.26z" fill="url(#linearGradient2706)"/>
   <path transform="matrix(15.815,0,0,15.815,-15731,-2436.6)" d="m1015.6 169.98s0.4-0.17 0.7-0.07c0.4 0.13 0.7 0.18 1.6 0.57 1 0.43 1.7 0.76 1.8 0.81 0.5 0.48 0.1 0.98 0.2 1.54-0.4 0.17-1.4 0.51-1.6 0.54-0.7-0.65 0.1-1.76 1.1-1.84-0.2-0.22-1.2-0.73-1.5-0.85-0.8-0.33-1.7-0.65-1.7-0.65s-0.9-0.11-1.3 0.61c0.1-0.36 0.7-0.7 0.7-0.66z" fill="url(#linearGradient2686)" filter="url(#filter5073-24)"/>
   <g transform="matrix(15.815,0,0,15.815,-15731,-2436.6)">
    <path d="m1019 173.12 2.1-0.52s3.5-2.94 3.9-3.12c2-1.64 4.5-2.25 6.5-1.51 0 0-0.2-2.64-0.9-2.98-0.7-0.35-2.6-0.61-2.6-0.61s-2.6 1.73-2.9 2.03-4.7 4.63-4.7 4.63l-1.3 1.62-0.3 0.56z" fill="url(#linearGradient2688)"/>
    <path d="m1029.8 163.55c-3.4 0.22-10 8.06-10.4 8.49s-1 1.37-1 1.32 4.3 1.88 7.9 1.66 8.2-2.41 8.6-5.54c0.6-3.6-1.8-6.14-5.1-5.93zm-2.3 1.49c1.1-0.2 3.5-0.22 3.1 3.42-0.3 2.25-1.9 5.82-5.2 6-3.3 0.17-6.6-1.27-6.6-1.31 0 0 5.3-5.61 5.6-5.79 0.2-0.17 1.8-2 3.1-2.32z" fill="url(#linearGradient2690-2)"/>
   </g>
   <path transform="matrix(15.815,0,0,15.815,-15731,-2436.6)" d="m1004.7 164.66c-0.1-0.82 1.5-2.01 2.9-2.53 1.3-0.53 3-0.36 3-0.36s-1.5 0.67-2.1 1.12c-1.2-0.12-2.4 0.41-2.4 0.41s-0.7 0.28-1.4 1.36z" fill="url(#linearGradient2692-8)" filter="url(#filter5115-5)" opacity=".55797"/>
   <path transform="matrix(15.416,3.5311,-3.5311,15.416,-14738,-6002.9)" d="m1026.8 165.52c0.8-1.14 1.3-1.64 2.9-2.13 1.4-0.42 3.8 0.67 3.8 0.67s-1.3 1.37-1.9 1.83c-0.7-0.94-2.5-1.22-2.5-1.22s-1.1-0.15-2.3 0.85z" fill="url(#linearGradient2694-2)" filter="url(#filter5115-5)" opacity=".55797"/>
   <path transform="matrix(15.815,0,0,15.815,-15731,-2436.6)" d="m1030.8 165.7s0.7 1.76 0.3 3.24-1 2.36-1 2.36 2 0.38 3-0.05c1-0.44 1.5-1.27 1.5-1.27s0.5-2.47-0.1-3.62-1.4-1.43-1.4-1.43-1.4 0-2.3 0.77z" fill="url(#linearGradient57)" filter="url(#filter5389-4)"/>
  </g>
 </g>
</svg>
